# xmcd CD database file generated by OrangeCD 6.5
#
# Track frame offsets:
#	182
#	11242
#	26255
#	56402
#	73615
#	91042
#	121300
#	159932
#
# Disc length: 2637 seconds
#
# Revision: 6
# Processed by: cddbd v1.5.2PL0 Copyright (c) Steve Scherf et al.
# Submitted via: OrangeCD 6.5
#
DISCID=560a4b08
DTITLE=John Mayall and The Bluesbreakers - Primal Solos
DYEAR=1977
DGENRE=Music
TTITLE0=Intro - Maudie
TTITLE1=It Hurts To Be In Love
TTITLE2=Have You Ever Loved A Woman
TTITLE3=Bye Bye Bird
TTITLE4=Hoochie Coochie Man
TTITLE5=Intro - Look At The Girl
TTITLE6=Wish You Were Mine
TTITLE7=Start Walkin'
EXTD=
EXTT0=Recorded at the Flamingo Club, London, April 1966\nwith Eric Clapton and 
EXTT0=Jack Bruce
EXTT1=Recorded at the Flamingo Club, London, April 1966\nwith Eric Clapton and 
EXTT1=Jack Bruce
EXTT2=Recorded at the Flamingo Club, London, April 1966\nwith Eric Clapton and 
EXTT2=Jack Bruce
EXTT3=Recorded at the Flamingo Club, London, April 1966\nwith Eric Clapton and 
EXTT3=Jack Bruce
EXTT4=Recorded at the Flamingo Club, London, April 1966\nwith Eric Clapton and 
EXTT4=Jack Bruce
EXTT5=Recorded at Falmer College, Brighton, England, 25th May 1968\nwith Mick T
EXTT5=aylor
EXTT6=Recorded in Sweden, Early December 1968\nwith Steve Thompson
EXTT7=Recorded at Falmer College, Brighton, England, 25th May 1968\nwith Mick T
EXTT7=aylor
PLAYORDER=
